<svg width="12" height="12" viewBox="0 0 12 12" fill="none" xmlns="http://www.w3.org/2000/svg">
<path d="M2.625 10.4999C2.52554 10.4999 2.43016 10.4604 2.35984 10.3901C2.28951 10.3198 2.25 10.2244 2.25 10.1249V1.87494C2.25001 1.80977 2.267 1.74574 2.2993 1.68914C2.3316 1.63254 2.37809 1.58534 2.43418 1.55218C2.49028 1.51902 2.55405 1.50105 2.6192 1.50004C2.68436 1.49904 2.74866 1.51503 2.80575 1.54644L10.3057 5.67144C10.3645 5.70381 10.4136 5.75137 10.4477 5.80915C10.4819 5.86693 10.4999 5.93282 10.4999 5.99994C10.4999 6.06705 10.4819 6.13294 10.4477 6.19072C10.4136 6.24851 10.3645 6.29606 10.3057 6.32844L2.80575 10.4534C2.75038 10.4839 2.68821 10.4999 2.625 10.4999Z" fill="#1C1A1A"/>
</svg>
